<?xml version="1.0" encoding="utf-8"?>
<!-- Generator: Adobe Illustrator 16.0.0, SVG Export Plug-In . SVG Version: 6.00 Build 0)  -->
<!DOCTYPE svg PUBLIC "-//W3C//DTD SVG 1.1//EN" "http://www.w3.org/Graphics/SVG/1.1/DTD/svg11.dtd">
<svg version="1.1" id="Layer_1" xmlns="http://www.w3.org/2000/svg" xmlns:xlink="http://www.w3.org/1999/xlink" x="0px" y="0px"
	 width="200px" height="200px" viewBox="0 0 200 200" enable-background="new 0 0 200 200" xml:space="preserve">
<g>
	<g opacity="0.6">
		<circle fill="#808080" cx="100" cy="100" r="96.385"/>
		<path fill="#333333" d="M100,200C44.859,200,0,155.141,0,100C0,44.86,44.859,0,100,0c55.14,0,100,44.86,100,100
			C200,155.141,155.14,200,100,200z M100,7.229C48.846,7.229,7.229,48.846,7.229,100c0,51.153,41.617,92.771,92.771,92.771
			c51.153,0,92.771-41.617,92.771-92.771C192.771,48.846,151.153,7.229,100,7.229z"/>
	</g>
	<g>
		<rect x="38.418" y="81.974" fill="#333333" width="123" height="36"/>
	</g>
</g>
</svg>
